<svg xmlns="http://www.w3.org/2000/svg" xmlns:xlink="http://www.w3.org/1999/xlink" viewBox="0 0 595.28 170.08"><defs><symbol id="decoration-dots" data-name="decoration-dots" viewBox="0 0 595.28 170.08"><path d="M63.78,170.08H85V148.82H63.78ZM0,170.08H21.26V148.82H0Zm127.56,0h21.26V148.82H127.56Zm63.78,0H212.6V148.82H191.34Zm63.78,0h21.26V148.82H255.12Zm63.78,0h21.26V148.82H318.9Zm63.78,0h21.26V148.82H382.68Zm63.78,0h21.26V148.82H446.46Zm63.78,0H531.5V148.82H510.24Zm63.78,0h21.26V148.82H574ZM63.78,95.67H85V74.41H63.78ZM0,95.67H21.26V74.41H0Zm127.56,0h21.26V74.41H127.56Zm63.78,0H212.6V74.41H191.34Zm63.78,0h21.26V74.41H255.12Zm63.78,0h21.26V74.41H318.9Zm63.78,0h21.26V74.41H382.68Zm63.78,0h21.26V74.41H446.46Zm63.78,0H531.5V74.41H510.24Zm63.78,0h21.26V74.41H574ZM63.78,21.26H85V0H63.78ZM0,21.26H21.26V0H0Zm127.56,0h21.26V0H127.56Zm63.78,0H212.6V0H191.34Zm63.78,0h21.26V0H255.12Zm63.78,0h21.26V0H318.9Zm63.78,0h21.26V0H382.68Zm63.78,0h21.26V0H446.46Zm63.78,0H531.5V0H510.24Zm63.78,0h21.26V0H574Z"/></symbol></defs><g id="Layer_2" data-name="Layer 2"><g id="Layer_1-2" data-name="Layer 1"><use id="decoration-dots-usage" width="595.28" height="170.08" transform="matrix(1, 0, 0, -1, 0, 170.08)" xlink:href="#decoration-dots"/></g></g></svg>